<svg xmlns="http://www.w3.org/2000/svg" width="40" height="40" viewBox="0 0 256 256"><path fill="#41D1FF" d="M128 26.3a101.8 101.8 0 0 1 75.8 170.3a101.8 101.8 0 0 1-151.6 0A101.8 101.8 0 0 1 128 26.3m0-26.3C57.3 0 0 57.3 0 128s57.3 128 128 128s128-57.3 128-128S198.7 0 128 0Z"/><path fill="#41D1FF" d="M203.8 196.6a101.3 101.3 0 0 1-75.8 33.1a101.3 101.3 0 0 1-75.8-33.1zm-151.6 0a101.3 101.3 0 0 1-26.5-68.6a101.3 101.3 0 0 1 26.5-68.6z"/><path fill="#FFD62E" d="M196.9 59.1A101.7 101.7 0 0 1 128 26.3a101.7 101.7 0 0 1 68.9 32.8z"/><path fill="#FFAF2E" d="M196.9 59.1c2.2 2.4 4.4 4.9 6.4 7.4c-2 2.5-4.2 5-6.4 7.4z"/></svg>
